HIERARCHY
ROOT Hips
{
	OFFSET 0.000000 0.000000 0.000000
	CHANNELS 6 Xposition Yposition Zposition Xrotation Yrotation Zrotation
	JOINT LeftUpLeg_virtual
	{
		OFFSET 0.000000 0.000000 0.000000
		CHANNELS 3 Xrotation Yrotation Zrotation
		JOINT LeftUpLeg
		{
			OFFSET 15.427100 -6.655098 0.678600
			CHANNELS 3 Xrotation Yrotation Zrotation
			JOINT LeftLeg
			{
				OFFSET 4.081073 -39.591068 13.024000
				CHANNELS 3 Xrotation Yrotation Zrotation
				JOINT LeftFoot
				{
					OFFSET -4.081074 -37.707932 -15.979700
					CHANNELS 3 Xrotation Yrotation Zrotation
					JOINT LeftToeBase
					{
						OFFSET 5.346399 -15.068900 20.645000
						CHANNELS 3 Xrotation Yrotation Zrotation
						JOINT LeftToe_End
						{
							OFFSET 2.754700 0.931300 11.300900
							CHANNELS 3 Xrotation Yrotation Zrotation
							End Site
							{
								OFFSET 0 0 0
							}
						}
					}
				}
			}
		}
	}
	JOINT RightUpLeg_virtual
	{
		OFFSET 0.000000 0.000000 0.000000
		CHANNELS 3 Xrotation Yrotation Zrotation
		JOINT RightUpLeg
		{
			OFFSET -15.569500 -6.655098 0.678600
			CHANNELS 3 Xrotation Yrotation Zrotation
			JOINT RightLeg
			{
				OFFSET -4.081825 -39.591045 13.023800
				CHANNELS 3 Xrotation Yrotation Zrotation
				JOINT RightFoot
				{
					OFFSET 4.081824 -37.707954 -15.979600
					CHANNELS 3 Xrotation Yrotation Zrotation
					JOINT RightToeBase
					{
						OFFSET -5.346400 -15.068900 20.645000
						CHANNELS 3 Xrotation Yrotation Zrotation
						JOINT RightToe_End
						{
							OFFSET -2.754700 0.931300 11.300900
							CHANNELS 3 Xrotation Yrotation Zrotation
							End Site
							{
								OFFSET 0 0 0
							}
						}
					}
				}
			}
		}
	}
	JOINT Spine_virtual
	{
		OFFSET 0.000000 0.000000 0.000000
		CHANNELS 3 Xrotation Yrotation Zrotation
		JOINT Spine
		{
			OFFSET -0.279200 12.230698 -2.892100
			CHANNELS 3 Xrotation Yrotation Zrotation
			JOINT Spine1
			{
				OFFSET -0.232667 10.192268 -1.242267
				CHANNELS 3 Xrotation Yrotation Zrotation
				JOINT Spine1_split
				{
					OFFSET -0.232667 10.192268 -1.242267
					CHANNELS 3 Xrotation Yrotation Zrotation
					JOINT Spine2
					{
						OFFSET -0.232667 10.192268 -1.242267
						CHANNELS 3 Xrotation Yrotation Zrotation
						JOINT Neck_virtual
						{
							OFFSET 0.000000 0.000000 0.000000
							CHANNELS 3 Xrotation Yrotation Zrotation
							JOINT Neck
							{
								OFFSET -0.418800 17.814194 8.416900
								CHANNELS 3 Xrotation Yrotation Zrotation
								JOINT Head
								{
									OFFSET 0.000000 7.031097 3.806800
									CHANNELS 3 Xrotation Yrotation Zrotation
									JOINT HeadTop_End
									{
										OFFSET 0.000000 24.646606 12.978600
										CHANNELS 3 Xrotation Yrotation Zrotation
										End Site
										{
											OFFSET 0 0 0
										}
									}
								}
							}
						}
						JOINT LeftShoulder_virtual
						{
							OFFSET 0.000000 0.000000 0.000000
							CHANNELS 3 Xrotation Yrotation Zrotation
							JOINT LeftShoulder
							{
								OFFSET 8.476499 7.247704 -3.868750
								CHANNELS 3 Xrotation Yrotation Zrotation
								JOINT LeftShoulder_split
								{
									OFFSET 8.476499 7.247704 -3.868750
									CHANNELS 3 Xrotation Yrotation Zrotation
									JOINT LeftArm
									{
										OFFSET 9.308998 -2.777710 0.208600
										CHANNELS 3 Xrotation Yrotation Zrotation
										JOINT LeftForeArm
										{
											OFFSET 29.972298 0.000000 0.000000
											CHANNELS 3 Xrotation Yrotation Zrotation
											JOINT LeftHand
											{
												OFFSET 26.026505 0.000000 0.000000
												CHANNELS 3 Xrotation Yrotation Zrotation
												End Site
												{
													OFFSET 0 0 0
												}
											}
										}
									}
								}
							}
						}
						JOINT RightShoulder_virtual
						{
							OFFSET 0.000000 0.000000 0.000000
							CHANNELS 3 Xrotation Yrotation Zrotation
							JOINT RightShoulder
							{
								OFFSET -7.570500 7.247704 -3.868750
								CHANNELS 3 Xrotation Yrotation Zrotation
								JOINT RightShoulder_split
								{
									OFFSET -7.570500 7.247704 -3.868750
									CHANNELS 3 Xrotation Yrotation Zrotation
									JOINT RightArm
									{
										OFFSET -9.308998 -2.777710 0.208500
										CHANNELS 3 Xrotation Yrotation Zrotation
										JOINT RightForeArm
										{
											OFFSET -29.972300 0.000000 0.000000
											CHANNELS 3 Xrotation Yrotation Zrotation
											JOINT RightHand
											{
												OFFSET -26.026505 0.000000 0.000000
												CHANNELS 3 Xrotation Yrotation Zrotation
												End Site
												{
													OFFSET 0 0 0
												}
											}
										}
									}
								}
							}
						}
					}
				}
			}
		}
	}
}
MOTION
Frames: 9
Frame Time: 0.03333333
0.507052 89.097275 -51.928154 0.000000 0.000000 0.000000 173.995108 -65.932772 176.470614 -24.955993 10.076235 20.518112 31.920483 -3.152843 -5.115165 -5.967533 -0.796569 -0.474038 2.763902 7.194840 -11.306930 0.000000 0.000000 0.000000 173.421139 -64.805361 176.285748 -4.184457 -9.953302 8.649994 16.947479 8.749198 -0.211826 -11.400269 1.823065 -5.925629 -1.909964 -7.254936 -0.659660 0.000000 0.000000 0.000000 173.001848 -66.174677 175.048541 3.475876 2.843234 4.371198 -2.793368 1.410021 -2.322014 0.688919 -1.356673 0.300718 0.000000 0.000000 0.000000 -4.909659 1.661454 -2.005296 1.858651 19.783496 7.173410 5.481697 27.668685 -15.513438 0.000000 0.000000 0.000000 -5.019859 2.238573 -2.181679 0.847633 -0.004248 0.929206 -0.398996 -1.048754 -1.059052 12.825993 0.173461 -67.067779 7.667406 -21.443225 -7.997141 0.000000 0.000000 0.000000 -4.214793 1.917651 -2.771872 2.708184 -5.333006 17.658932 -5.079188 -0.790084 -0.474028 10.724696 32.901609 54.001511 15.094667 29.872068 -1.161286 0.000000 0.000000 0.000000 
-0.186219 89.548721 -53.348434 0.000000 0.000000 0.000000 173.758838 -60.660686 176.280065 -24.745751 2.623915 15.662906 32.130221 -3.385422 -4.298330 -4.641303 0.082296 -0.736626 0.834281 8.072517 -12.109994 0.000000 0.000000 0.000000 173.219225 -58.811836 176.053426 -3.575523 -8.025541 10.424921 17.279743 11.251915 0.905986 -11.203536 1.417353 -7.199526 -2.666713 -6.943268 -1.498351 0.000000 0.000000 0.000000 173.236438 -60.446751 174.989843 3.729200 3.476775 4.316042 -2.697669 1.913873 -2.422022 0.750011 -1.095577 0.401397 0.000000 0.000000 0.000000 -4.799966 2.119444 -2.190476 1.820252 18.074479 7.102476 4.706118 25.218344 -14.358748 0.000000 0.000000 0.000000 -4.980674 2.699642 -2.277222 0.769361 -0.146534 1.275731 -0.120022 -1.136907 -0.877953 13.861787 1.048338 -68.638128 8.696156 -20.357927 -8.073351 0.000000 0.000000 0.000000 -4.116479 2.362923 -2.905745 2.716521 -5.587010 17.701885 -4.994968 -1.036830 -0.289600 9.850603 35.009156 53.975280 15.310333 28.888435 -1.580004 0.000000 0.000000 0.000000 
-0.940708 90.139809 -54.836151 0.000000 0.000000 0.000000 173.457681 -55.503750 176.034302 -25.201721 -4.176459 10.726037 31.112478 -3.897748 -3.293827 -3.399775 0.395980 -1.359433 -3.003865 9.093578 -12.792954 0.000000 0.000000 0.000000 173.219512 -53.021249 176.141344 -2.505461 -6.572271 12.012956 18.103304 13.368976 2.009918 -11.682383 1.159315 -9.202017 -2.205949 -6.536570 -2.246280 0.000000 0.000000 0.000000 173.445933 -54.886171 174.998585 3.973753 3.938702 3.948890 -2.511403 2.293740 -2.303795 0.846022 -0.727768 0.420756 0.000000 0.000000 0.000000 -4.567944 2.488505 -2.165249 1.799716 16.059090 6.641997 3.401579 21.922110 -12.545230 0.000000 0.000000 0.000000 -4.855374 3.062321 -2.137417 0.689506 -0.260731 1.495750 0.167868 -1.315121 -0.734261 14.622914 1.660063 -70.172230 9.447477 -18.466552 -8.263523 0.000000 0.000000 0.000000 -3.951965 2.702141 -2.796472 2.735437 -5.910647 17.547716 -4.873542 -1.200979 -0.058742 8.816460 37.330730 54.261140 15.359764 27.641291 -1.975363 0.000000 0.000000 0.000000 
-1.753276 90.725899 -56.278389 0.000000 0.000000 0.000000 173.378902 -50.263202 176.076676 -26.342938 -9.658944 6.356335 29.396246 -4.657830 -2.393753 -2.309974 0.241067 -2.366179 -6.785600 10.092782 -13.776550 0.000000 0.000000 0.000000 173.397029 -47.491412 176.436135 -1.328220 -5.463570 13.275976 19.581756 15.413042 2.994010 -11.970613 1.175869 -11.286213 -1.892968 -6.054380 -2.892704 0.000000 0.000000 0.000000 173.744235 -49.589619 175.214064 4.270480 4.196448 3.343124 -2.245588 2.531882 -1.999419 0.994409 -0.267140 0.310524 0.000000 0.000000 0.000000 -4.222658 2.742959 -1.945942 1.829243 13.766093 5.853391 1.816356 17.896812 -10.290906 0.000000 0.000000 0.000000 -4.654484 3.307856 -1.797173 0.613281 -0.264475 1.552710 0.489570 -1.623230 -0.630389 15.234974 2.144655 -71.491761 9.853633 -16.340242 -8.551211 0.000000 0.000000 0.000000 -3.737561 2.914104 -2.479867 2.769299 -6.299355 17.156598 -4.684370 -1.206722 0.239514 7.649808 39.663322 54.951051 15.282267 26.495405 -2.380970 0.000000 0.000000 0.000000 
-2.638014 91.193024 -57.958908 0.000000 0.000000 0.000000 173.480726 -44.918087 176.325473 -28.254450 -13.517011 2.952980 27.768354 -5.632670 -1.808357 -0.692480 -0.127230 -4.055120 -8.161854 10.790914 -15.433653 0.000000 0.000000 0.000000 173.678009 -42.341859 176.785363 -0.349700 -4.415358 14.118063 21.129096 17.787061 3.776911 -11.595324 1.652204 -12.645428 -2.746710 -5.519860 -3.409594 0.000000 0.000000 0.000000 174.122586 -44.562968 175.592347 4.644081 4.298100 2.647358 -1.919500 2.649513 -1.578286 0.951389 0.245103 0.134100 0.000000 0.000000 0.000000 -3.828023 2.877369 -1.585231 1.881689 11.255473 4.867381 0.245052 13.369224 -7.854139 0.000000 0.000000 0.000000 -4.390765 3.449549 -1.331773 0.553459 -0.101224 1.435711 0.796809 -2.057984 -0.582849 15.845393 2.593118 -72.442311 9.967022 -14.619829 -8.871858 0.000000 0.000000 0.000000 -3.481919 2.997233 -2.043748 2.836158 -6.729039 16.551324 -4.399030 -1.069100 0.526817 6.496639 41.823185 55.953743 15.117775 25.719646 -2.827697 0.000000 0.000000 0.000000 
-3.524363 91.506966 -59.798637 0.000000 0.000000 0.000000 173.688651 -39.690605 176.673730 -30.447136 -15.843507 0.532348 26.279829 -6.617714 -1.533301 1.407682 -0.436017 -6.262019 -6.894238 10.980693 -17.378728 0.000000 0.000000 0.000000 173.954331 -37.527819 177.008068 0.493328 -3.261514 14.526755 22.364066 20.464012 4.267427 -10.752000 2.627595 -13.369034 -4.683594 -4.965368 -3.600215 0.000000 0.000000 0.000000 174.556945 -39.836525 176.104366 5.124645 4.276885 1.998122 -1.558814 2.680816 -1.127805 0.712194 0.683317 -0.084594 0.000000 0.000000 0.000000 -3.431530 2.899281 -1.175260 1.952708 8.667898 3.822836 -1.114243 8.594810 -5.441858 0.000000 0.000000 0.000000 -4.083464 3.490890 -0.848622 0.510538 0.248764 1.165089 1.174871 -2.556125 -0.507988 16.531546 3.081065 -72.962895 9.897292 -13.757199 -9.146612 0.000000 0.000000 0.000000 -3.208077 2.972139 -1.593690 2.897629 -7.148141 15.791020 -4.011334 -0.817218 0.848341 5.480453 43.693325 57.086851 14.891166 25.373840 -3.298170 0.000000 0.000000 0.000000 
-4.357575 91.656403 -62.009972 0.000000 0.000000 0.000000 173.952009 -34.812450 177.064636 -32.320315 -16.701148 -0.927696 24.489531 -7.342349 -1.577527 3.094712 -0.565340 -8.343942 -5.149901 10.765012 -18.615831 0.000000 0.000000 0.000000 174.180957 -32.883741 177.145164 1.379219 -2.041596 14.522961 22.960538 23.034412 4.566014 -10.149218 3.911631 -14.170175 -6.794237 -4.440202 -3.302079 0.000000 0.000000 0.000000 174.985635 -35.410286 176.629880 5.694081 4.190873 1.459564 -1.188569 2.650965 -0.733415 0.451357 0.936361 -0.310303 0.000000 0.000000 0.000000 -3.064818 2.830521 -0.801441 2.048747 6.144814 2.837106 -2.127941 3.926990 -3.234661 0.000000 0.000000 0.000000 -3.747557 3.454849 -0.440295 0.486238 0.695321 0.794389 1.625051 -2.968071 -0.481279 17.231695 3.568042 -73.077724 9.776467 -13.740897 -9.331844 0.000000 0.000000 0.000000 -2.931269 2.875139 -1.225706 2.920568 -7.502957 15.005902 -3.561121 -0.542159 1.199585 4.784123 45.238669 58.095841 14.661580 25.461398 -3.806084 0.000000 0.000000 0.000000 
-5.090176 91.693954 -64.548645 0.000000 0.000000 0.000000 174.116548 -30.511521 177.255621 -33.520321 -16.310360 -1.682394 22.112184 -7.588883 -1.849930 3.589773 -0.402011 -9.541609 -4.265988 10.330392 -18.916800 0.000000 0.000000 0.000000 174.268725 -28.556956 177.102721 2.500502 -0.753503 14.047395 22.843882 25.251315 4.848000 -10.138618 5.224753 -15.326540 -8.306047 -3.951833 -2.563065 0.000000 0.000000 0.000000 175.328115 -31.375983 177.023012 6.295741 4.082375 1.074646 -0.825010 2.588471 -0.446299 0.207414 0.967189 -0.278574 0.000000 0.000000 0.000000 -2.765791 2.704269 -0.522767 2.166264 3.826940 2.003166 -2.768279 -0.313544 -1.353020 0.000000 0.000000 0.000000 -3.373996 3.357336 -0.166773 0.485356 1.112586 0.401111 2.089369 -3.247728 -0.500357 17.902378 3.954031 -72.861022 9.710034 -14.184023 -9.414998 0.000000 0.000000 0.000000 -2.649382 2.742302 -0.986713 2.881495 -7.741297 14.327649 -3.051712 -0.259778 1.645258 4.625817 46.578584 58.712764 14.478831 25.944094 -4.350910 0.000000 0.000000 0.000000 
-5.696711 91.619629 -67.206940 0.000000 0.000000 0.000000 174.142681 -26.856051 177.165695 -34.219091 -15.163940 -1.998814 19.743958 -7.431627 -2.156997 3.103616 0.013670 -9.604779 -3.519858 9.684295 -19.078125 0.000000 0.000000 0.000000 174.199726 -24.646644 176.838242 3.975816 0.520508 13.217774 22.559555 27.091028 5.104640 -10.550525 6.317300 -16.687392 -9.277975 -3.461695 -1.631917 0.000000 0.000000 0.000000 175.542378 -27.770904 177.308842 6.842437 3.961373 0.780994 -0.480629 2.499156 -0.285616 0.117473 0.763907 -0.219074 0.000000 0.000000 0.000000 -2.518746 2.543058 -0.362159 2.329105 1.813045 1.386675 -3.103800 -3.867807 0.122533 0.000000 0.000000 0.000000 -3.008623 3.210994 -0.026441 0.500985 1.390276 0.073012 2.509013 -3.408463 -0.609898 18.349810 4.163147 -72.409670 9.744118 -14.603629 -9.398138 0.000000 0.000000 0.000000 -2.391578 2.594858 -0.867853 2.776771 -7.848389 13.850073 -2.567449 0.063731 2.159914 5.152045 47.750576 58.771995 14.392851 26.844954 -4.926385 0.000000 0.000000 0.000000 
